<?xml version="1.0" encoding="UTF-8"?>
<svg width="140px" height="40px" viewBox="0 0 140 40" version="1.1" xmlns="http://www.w3.org/2000/svg" xmlns:xlink="http://www.w3.org/1999/xlink">
    <!-- Generator: Sketch 51.3 (57544) - http://www.bohemiancoding.com/sketch -->
    <title>Group 49</title>
    <desc>Created with Sketch.</desc>
    <defs></defs>
    <g id="Comp" stroke="none" stroke-width="1" fill="none" fill-rule="evenodd">
        <g id="Group-49" fill-rule="nonzero">
            <rect id="Logo" fill="#FFFFFF" x="0" y="0" width="140" height="40"></rect>
            <g id="fast-company" transform="translate(46.000000, 3.000000)" fill="#00237E">
                <path d="M10.812,27.786 C10.812,29.099 10.663,33.244 10.663,33.244 C10.663,34.073 10.961,34.418 11.779,34.418 L11.779,34.764 L8.506,34.764 L8.506,34.487 C9.324,34.487 9.771,34.142 9.771,33.313 L10.068,26.543 C9.845,25.99 9.622,25.852 8.952,25.783 L8.952,25.437 L11.407,25.437 L14.012,31.793 L16.616,25.437 L18.848,25.437 L18.848,25.783 C18.253,25.783 17.881,26.059 17.881,26.681 L18.178,33.244 C18.178,34.211 18.401,34.487 19.22,34.487 L19.22,34.833 L15.5,34.833 L15.5,34.487 C16.244,34.487 16.541,34.28 16.541,33.244 C16.541,33.244 16.393,28.684 16.318,27.855 L14.532,32.415 C14.309,32.967 14.086,33.658 13.862,34.349 L13.268,34.419 C13.118,33.935 12.747,33.037 12.747,33.037 C12.747,33.037 11.333,29.099 10.812,27.787 L10.812,27.786 Z" id="Shape"></path>
                <path d="M7.887,34.166 C7.664,34.096 7.515,34.096 7.292,34.096 C6.92,34.096 6.25,34.304 5.432,34.304 C2.307,34.304 0,32.577 0,29.33 C0,26.635 2.158,24.494 5.506,24.494 C6.31698768,24.496976 7.12164443,24.6369457 7.886,24.908 L8.259,24.563 L8.557,24.563 C8.482,25.046 8.333,26.635 8.333,26.635 L8.036,26.635 C7.812,25.668 7.292,25.046 5.655,25.046 C3.645,25.046 1.785,26.497 1.785,29.261 C1.785,32.369 3.645,33.682 5.729,33.682 C7.069,33.682 7.887,32.992 8.408,32.093 L8.78,32.231 L7.887,34.166 Z M34.617,26.843 L34.617,32.231 C34.617,33.406 34.914,33.613 35.658,33.613 L35.658,33.958 L30.003,33.958 L30.003,33.613 C30.45,33.613 30.822,33.475 30.822,33.198 C30.822,32.991 30.747,32.715 30.673,32.369 L30.227,31.057 L27.027,31.057 C26.953,31.264 26.432,32.715 26.432,33.129 C26.432,33.475 26.878,33.544 27.176,33.544 L27.176,33.889 L24.572,33.889 L24.572,33.613 C25.018,33.613 25.465,33.543 25.762,32.646 L28.143,25.323 C27.995,24.977 27.771,24.908 27.473,24.908 L27.473,24.563 L29.631,24.563 L32.236,32.163 C32.459,32.991 32.682,33.337 33.128,33.543 C33.724,33.337 33.872,33.198 33.872,32.163 L33.872,25.737 C33.426,25.185 33.426,24.839 32.608,24.839 L32.608,24.494 L35.063,24.494 L39.081,30.85 L39.081,26.014 C39.081,25.046 38.858,24.839 38.039,24.839 L38.039,24.494 L43.396,24.494 L43.396,24.839 C43.024,24.839 42.801,24.977 42.801,25.254 C42.801,25.461 42.875,25.668 43.024,25.944 L44.587,29.054 L46.075,26.083 C46.298,25.668 46.372,25.461 46.372,25.253 C46.372,24.977 46.149,24.839 45.777,24.839 L45.777,24.494 L48.307,24.494 L48.307,24.839 C47.712,24.839 47.265,25.392 47.042,26.014 L45.108,29.744 L45.108,32.231 C45.108,33.268 45.405,33.544 46.149,33.544 L46.149,33.889 L42.503,33.889 L42.503,33.613 C43.247,33.613 43.545,33.337 43.545,32.3 L43.545,30.228 L41.462,26.083 C41.09,25.253 40.941,25.116 40.718,24.977 C40.271,25.185 40.122,25.461 40.122,26.152 L40.122,32.992 C40.122,32.992 40.197,33.544 40.197,34.166 L39.602,34.235 L34.617,26.843 Z M28.59,26.428 L27.25,30.504 L30.003,30.504 L28.59,26.428 Z" id="Shape"></path>
                <path d="M23.195,31.31 L22.451,31.31 L22.451,33.244 C22.451,34.211 22.748,34.418 23.567,34.418 L23.567,34.764 L19.847,34.764 L19.847,34.487 C20.591,34.487 20.888,34.211 20.888,33.244 L20.888,26.957 C20.888,25.99 20.591,25.783 19.847,25.783 L19.847,25.437 L22.6,25.437 C25.278,25.437 26.84,26.197 26.84,28.27 C26.99,30.411 25.055,31.31 23.195,31.31 Z M22.748,26.059 L22.525,26.059 L22.525,30.619 L22.972,30.619 C24.534,30.619 25.352,29.928 25.352,28.269 C25.352,26.612 24.608,26.059 22.748,26.059 Z M5.886,32.322 C4.026,32.322 2.836,31.148 2.836,29.352 C2.836,27.693 4.1,26.381 5.886,26.381 C7.597,26.381 8.936,27.624 8.936,29.351 C8.936,31.009 7.597,32.322 5.886,32.322 Z M5.886,27.002 C4.621,27.002 4.174,28.108 4.174,29.42 C4.174,30.595 4.547,31.838 5.886,31.838 C7.151,31.838 7.523,30.664 7.523,29.42 C7.523,28.108 7.002,27.002 5.886,27.002 Z" id="Shape"></path>
                <g id="Group">
                    <path d="M47.98,4.6 L47.235,4.6 C47.16,2.629 46.489,2.045 44.923,2.045 L41.94,2.045 L41.94,18.038 C41.94,20.667 42.462,21.178 44.251,21.178 L44.251,21.982 L36.421,21.982 L36.421,21.178 C38.211,21.178 38.733,20.667 38.733,17.892 L38.733,2.045 L35.749,2.045 C33.736,2.045 33.437,2.556 32.915,4.601 L32.17,4.601 L32.692,0 L33.214,0.073 C33.437,0.584 33.81,0.584 35.078,0.584 L45.146,0.584 C47.011,0.584 47.458,0.584 47.831,0 L48.428,0 L47.98,4.6 Z" id="Shape"></path>
                    <path d="M25.671,22.61 C24.141,22.61 22.994,22.39 22.152,22.097 C21.31,21.877 20.622,21.585 20.316,21.366 C19.856,21.805 19.551,22.316 19.551,22.316 L18.939,22.097 L19.474,17.268 L20.239,17.341 C20.699,19.61 22.305,21.219 25.595,21.219 C28.196,21.219 29.879,19.171 29.879,16.902 C29.879,15.073 29.114,14.122 26.589,12.292 C25.748,11.78 24.983,11.342 24.371,10.829 C21.999,9.366 20.545,7.756 20.545,5.122 C20.545,2.049 23.223,0 26.743,0 C28.808,0 30.033,0.585 30.492,0.805 L31.257,0 L31.792,0.073 L31.257,4.463 L30.492,4.39 C30.492,2.341 29.191,1.463 27.049,1.463 C24.983,1.463 23.529,2.488 23.529,4.39 C23.529,6.146 24.906,7.244 26.513,8.268 C27.355,8.78 28.043,9.219 28.655,9.585 C32.405,12.146 33.245,13.756 33.245,16.244 C33.169,19.975 30.262,22.61 25.671,22.61 Z M14.762,4.7 L13.934,4.7 C13.934,2.892 13.106,2.17 11.374,2.17 L6.63,2.17 L6.63,10.123 L9.642,10.123 C11.223,10.123 11.524,9.328 11.75,8.026 L12.503,8.026 L12.503,13.666 L11.75,13.666 C11.524,12.148 11.223,11.569 9.567,11.569 L6.63,11.569 L6.63,18.366 C6.63,20.896 7.232,21.186 8.964,21.186 L8.964,21.982 L0.982,21.982 L0.982,21.186 C3.015,21.186 3.316,20.68 3.316,18.366 L3.316,3.471 C3.316,2.025 2.714,1.446 0.982,1.446 L0.982,0.723 L11.901,0.723 C13.783,0.723 14.235,0.651 14.536,0 L15.29,0 L14.762,4.7 Z" id="Shape"></path>
                    <path d="M18.324,16.264 L18.324,15.554 C19.347,15.554 19.567,15.27 19.567,14.987 C19.567,14.561 19.494,14.277 19.347,13.993 C19.347,13.993 19.128,13.213 18.909,12.573 L14.96,12.573 L14.52,13.851 C14.448,14.135 14.302,14.419 14.302,14.845 C14.302,15.27 14.74,15.555 15.325,15.555 L15.325,16.264 L11.377,16.264 L11.377,15.554 C12.401,15.554 12.839,15.27 13.205,14.134 L16.275,5.194 C16.203,4.767 15.837,4.484 15.252,4.484 L15.252,3.774 L18.542,3.774 C21.174,11.438 21.905,13.425 21.905,13.425 C22.417,15.128 22.929,15.625 23.733,15.625 L23.733,16.335 L18.323,16.335 L18.323,16.264 L18.324,16.264 Z M16.862,6.684 L15.326,11.509 L18.47,11.509 L16.862,6.684 Z" id="Shape"></path>
                </g>
            </g>
        </g>
    </g>
</svg>